:SAMPLES-PER-SECOND 30
:FULLY-SPECIFIED
:DEGREES
63
root  -28.1687 19.3452 2.1019 -152.629 76.0022 171.524
RightUpLeg  -51.3155 2.22615 14.8746
RightLeg  119.884 10.4144 2.00223
RightFoot  -13.8363 -0.0838424 -12.8573
RightToes  -4.65663e-010 -1.59028e-015 9.93923e-017
Spine  55.7225 -8.90553 11.5216
Spine1  -16.5163 -2.2872 -2.95196
HEad  -60.4028 -2.86315 9.53156
LeftShoulder1  9.93923e-017 0 1.22299e-017
LeftArm  0.735663 -28.6938 -93.0319
LeftForeArm  30.2375 -1.67212 -3.428
LeftHand  -3.97051 -0.678766 48.9837
RightShoulder  1.98785e-016 -4.96962e-017 1.55301e-017
RightArm  -5.98866 37.4514 86.6753
RightForeArm  13.1424 0.575081 -3.33398
RightHand  6.86286 -19.4431 -39.9211
LeftUpLeg  -5.13178 -16.6317 14.3492
LeftLeg  63.8554 -18.663 -14.3036
LeftFoot  23.5528 2.35526 -6.8302
LeftToes  3.34876e-009 -9.68256e-011 -6.12847e-011
64
root  -27.548 19.7854 2.88618 -171.196 74.9988 153.237
RightUpLeg  -48.5212 0.599406 12.6997
RightLeg  116.898 11.2578 0.538027
RightFoot  -14.7145 -0.210183 -14.724
RightToes  -4.65663e-010 -1.59028e-015 9.93923e-017
Spine  56.1555 -8.04282 7.96442
Spine1  -15.0818 -3.3735 -2.70368
HEad  -61.3389 -3.31085 11.3553
LeftShoulder1  9.93923e-017 0 1.22299e-017
LeftArm  10.8206 -29.7476 -92.7345
LeftForeArm  24.1263 -3.89529 -5.3683
LeftHand  -3.72473 -0.525115 47.3954
RightShoulder  1.98785e-016 -4.96962e-017 1.55301e-017
RightArm  -7.61866 36.4823 85.9821
RightForeArm  12.5609 0.996144 -3.86774
RightHand  7.34311 -19.8992 -41.6619
LeftUpLeg  -11.0497 -15.3796 13.1324
LeftLeg  71.2259 -16.5837 -13.4765
LeftFoot  18.985 2.05267 -6.8603
LeftToes  3.34876e-009 -9.68256e-011 -6.12847e-011
65
root  -27.0166 20.0928 3.64451 174.107 72.8834 139.037
RightUpLeg  -45.8192 -1.15253 10.5927
RightLeg  114.358 12.0268 -1.10163
RightFoot  -15.5059 -0.353969 -16.6312
RightToes  -4.65663e-010 -1.59028e-015 9.93923e-017
Spine  56.0508 -6.58444 4.31894
Spine1  -12.7361 -3.98234 -2.0582
HEad  -62.1039 -4.02738 12.7702
LeftShoulder1  9.93923e-017 0 1.22299e-017
LeftArm  25.9937 -30.3034 -92.5916
LeftForeArm  13.0672 -7.64704 -5.99413
LeftHand  -3.30111 -0.260111 44.4269
RightShoulder  1.98785e-016 -4.96962e-017 1.55301e-017
RightArm  -8.42808 35.8952 84.9977
RightForeArm  11.6409 0.778066 -4.21817
RightHand  7.56242 -20.1341 -42.3134
LeftUpLeg  -17.9175 -14.1375 11.7297
LeftLeg  80.4681 -14.6187 -13.2356
LeftFoot  14.8491 1.71453 -6.62732
LeftToes  3.34876e-009 -9.68256e-011 -6.12847e-011
66
root  -26.5399 20.336 4.31709 164.085 70.1748 129.948
RightUpLeg  -43.1464 -2.88021 8.60767
RightLeg  112.339 12.4518 -2.25159
RightFoot  -15.7801 -0.417577 -17.6657
RightToes  -4.65663e-010 -1.59028e-015 9.93923e-017
Spine  55.9063 -5.09525 1.55589
Spine1  -10.2149 -4.06408 -1.96978
HEad  -62.3893 -5.46734 13.9355
LeftShoulder1  9.93923e-017 0 1.22299e-017
LeftArm  38.3546 -30.8217 -92.3493
LeftForeArm  4.55048 -11.0146 -5.29759
LeftHand  -2.70527 0.136545 39.8403
RightShoulder  1.98785e-016 -4.96962e-017 1.55301e-017
RightArm  -9.53371 35.071 83.1388
RightForeArm  10.6603 -0.135997 -4.41892
RightHand  7.77668 -20.3687 -42.9069
LeftUpLeg  -25.6238 -13.1404 10.4993
LeftLeg  90.7093 -12.6366 -13.6929
LeftFoot  9.3695 1.32533 -6.42775
LeftToes  3.34876e-009 -9.68256e-011 -6.12847e-011
67
root  -26.0828 20.5849 4.90051 156.657 67.0877 124.182
RightUpLeg  -40.119 -4.61222 6.32443
RightLeg  110.825 12.4585 -2.51625
RightFoot  -15.3744 -0.348172 -17.3438
RightToes  -4.65663e-010 -1.59028e-015 9.93923e-017
Spine  56.219 -3.94789 -0.264988
Spine1  -7.84139 -3.85634 -3.26941
HEad  -62.1667 -7.61802 15.2165
LeftShoulder1  9.93923e-017 0 1.22299e-017
LeftArm  46.1801 -31.8842 -92.3041
LeftForeArm  1.31544 -14.5033 -2.86442
LeftHand  -2.02324 0.605258 33.7023
RightShoulder  1.98785e-016 -4.96962e-017 1.55301e-017
RightArm  -11.6159 33.5462 80.1302
RightForeArm  9.64343 -0.747107 -4.67791
RightHand  7.88985 -20.478 -43.2614
LeftUpLeg  -34.0358 -12.6465 9.13667
LeftLeg  100.929 -10.3344 -14.823
LeftFoot  1.26268 0.841193 -6.48348
LeftToes  3.34876e-009 -9.68256e-011 -6.12847e-011
68
root  -25.6714 20.8073 5.37146 150.919 64.436 120.606
RightUpLeg  -36.8373 -5.72792 4.09282
RightLeg  109.766 12.1555 -1.96141
RightFoot  -14.5052 -0.204537 -16.3991
RightToes  -4.65663e-010 -1.59028e-015 9.93923e-017
Spine  56.7241 -2.93944 -1.34899
Spine1  -5.33109 -3.21341 -5.18569
HEad  -61.9494 -9.97411 16.4312
LeftShoulder1  9.93923e-017 0 1.22299e-017
LeftArm  51.8647 -33.3391 -92.5995
LeftForeArm  -0.447187 -16.9624 -0.393095
LeftHand  -1.36062 1.04432 26.3403
RightShoulder  1.98785e-016 -4.96962e-017 1.55301e-017
RightArm  -13.8457 31.5556 76.7074
RightForeArm  8.56486 -0.790537 -5.03157
RightHand  7.84122 -20.4195 -43.149
LeftUpLeg  -43.245 -11.9692 7.78879
LeftLeg  110.211 -7.48355 -16.3993
LeftFoot  -7.34875 0.345008 -6.93372
LeftToes  3.34876e-009 -9.68256e-011 -6.12847e-011
69
root  -25.3369 21.0389 5.81735 141.724 60.3817 116.274
RightUpLeg  -30.135 -7.12429 -0.746387
RightLeg  108.925 11.7036 -0.921
RightFoot  -14.03 -0.130107 -15.794
RightToes  -4.65663e-010 -1.59028e-015 9.93923e-017
Spine  61.0691 -1.2294 -3.93184
Spine1  -3.58827 -3.28352 -4.94274
HEad  -62.3218 -11.9796 17.2777
LeftShoulder1  9.93923e-017 0 1.22299e-017
LeftArm  54.8236 -34.6301 -92.2657
LeftForeArm  -2.90004 -18.9908 2.44243
LeftHand  -0.788375 1.43819 18.7718
RightShoulder  1.98785e-016 -4.96962e-017 1.55301e-017
RightArm  -15.4066 29.8081 73.6827
RightForeArm  7.53588 -0.732331 -5.3941
RightHand  7.84867 -20.4335 -43.1497
LeftUpLeg  -49.8098 -11.9377 3.3628
LeftLeg  116.885 -5.05481 -17.1803
LeftFoot  -13.3158 -0.0336244 -7.7224
LeftToes  3.34876e-009 -9.68256e-011 -6.12847e-011
70
root  -25.1031 21.3012 6.10155 133.493 54.9744 114.813
RightUpLeg  -20.9188 -9.52043 -7.19556
RightLeg  107.687 11.3166 0.0277158
RightFoot  -13.7389 -0.0887899 -15.6329
RightToes  -4.65663e-010 -1.59028e-015 9.93923e-017
Spine  67.1378 -0.757552 -5.61212
Spine1  -1.68999 -4.56865 -4.48167
HEad  -63.2985 -13.5295 17.8717
LeftShoulder1  9.93923e-017 0 1.22299e-017
LeftArm  59.0845 -34.9042 -90.9493
LeftForeArm  -11.9861 -21.7377 8.04586
LeftHand  -0.372032 1.89752 13.3113
RightShoulder  1.98785e-016 -4.96962e-017 1.55301e-017
RightArm  -16.4049 28.6561 71.1372
RightForeArm  6.60516 -0.733813 -5.70516
RightHand  8.00349 -20.6107 -43.5322
LeftUpLeg  -54.8439 -12.7193 -3.60436
LeftLeg  120.503 -4.46246 -16.0953
LeftFoot  -16.5085 -0.282424 -8.63928
LeftToes  3.34876e-009 -9.68256e-011 -6.12847e-011
71
root  -24.9847 21.5769 6.13813 128.533 49.7623 117.103
RightUpLeg  -11.0863 -12.6004 -13.5431
RightLeg  105.865 11.1611 0.388782
RightFoot  -13.3764 -0.0387018 -15.4432
RightToes  -4.65663e-010 -1.59028e-015 9.93923e-017
Spine  72.3767 -2.78281 -5.00705
Spine1  0.807192 -6.62594 -5.4728
HEad  -64.3431 -14.979 18.6198
LeftShoulder1  9.93923e-017 0 1.22299e-017
LeftArm  63.5062 -34.0619 -88.8705
LeftForeArm  -25.4481 -24.1571 15.3576
LeftHand  -0.197794 2.33303 12.0535
RightShoulder  1.98785e-016 -4.96962e-017 1.55301e-017
RightArm  -17.197 27.9284 68.8027
RightForeArm  5.64895 -0.709157 -5.87225
RightHand  8.1022 -20.7297 -43.7517
LeftUpLeg  -59.5347 -14.2141 -11.8175
LeftLeg  120.425 -6.17453 -13.3148
LeftFoot  -17.8494 -0.427144 -9.65377
LeftToes  3.34876e-009 -9.68256e-011 -6.12847e-011
